<?xml version="1.0" encoding="UTF-8"?>
<svg xmlns="http://www.w3.org/2000/svg" xmlns:xlink="http://www.w3.org/1999/xlink" width="92px" height="32px" viewBox="0 0 68 65" version="1.1">
<g id="surface1">
<path style=" stroke:none;fill-rule:nonzero;fill:rgb(0%,0%,0%);fill-opacity:1;" d="M 0.730469 32.484375 L 0.730469 64.972656 L 67.269531 64.972656 L 67.269531 0 L 0.730469 0 Z M 59.816406 11.769531 C 59.796875 14.957031 59.757812 22.558594 59.714844 28.660156 C 59.671875 34.761719 59.632812 44.019531 59.617188 49.230469 L 59.59375 58.710938 L 6.789062 58.710938 L 6.789062 6.261719 L 8.222656 6.261719 C 9.007812 6.261719 12.230469 6.238281 15.378906 6.21875 C 27.015625 6.128906 48.816406 6.003906 54.246094 5.996094 L 59.847656 5.984375 Z M 59.816406 11.769531 "/>
<path style=" stroke:none;fill-rule:nonzero;fill:rgb(0%,0%,0%);fill-opacity:1;" d="M 16.417969 13.082031 C 17.40625 13.933594 28.914062 23.199219 28.96875 23.183594 C 29.015625 23.183594 30.480469 22.601562 32.214844 21.890625 C 33.960938 21.1875 39.609375 18.894531 44.777344 16.796875 C 49.941406 14.707031 54.183594 12.980469 54.195312 12.964844 C 54.210938 12.953125 45.6875 12.9375 35.242188 12.9375 L 16.253906 12.945312 Z M 16.417969 13.082031 "/>
<path style=" stroke:none;fill-rule:nonzero;fill:rgb(0%,0%,0%);fill-opacity:1;" d="M 16.085938 18.28125 L 16.085938 23.375 L 28.617188 23.375 L 22.46875 18.390625 C 19.089844 15.652344 16.265625 13.363281 16.203125 13.300781 C 16.09375 13.203125 16.085938 13.445312 16.085938 18.28125 Z M 16.085938 18.28125 "/>
<path style=" stroke:none;fill-rule:nonzero;fill:rgb(0%,0%,0%);fill-opacity:1;" d="M 52.589844 13.953125 C 51.605469 14.359375 49.347656 15.269531 47.570312 15.992188 C 45.792969 16.707031 40.910156 18.691406 36.710938 20.386719 L 29.097656 23.480469 L 29.183594 23.6875 C 29.230469 23.796875 29.636719 24.722656 30.082031 25.738281 C 31.585938 29.160156 36.164062 39.605469 36.816406 41.097656 L 37.464844 42.570312 L 37.484375 32.972656 L 37.5 23.375 L 41.796875 23.363281 L 46.089844 23.363281 L 49.859375 18.773438 C 54.003906 13.738281 54.425781 13.21875 54.394531 13.222656 C 54.382812 13.222656 53.574219 13.550781 52.589844 13.953125 Z M 52.589844 13.953125 "/>
<path style=" stroke:none;fill-rule:nonzero;fill:rgb(0%,0%,0%);fill-opacity:1;" d="M 28.941406 24.109375 C 28.929688 24.1875 28.929688 30.765625 28.949219 38.746094 L 28.980469 53.246094 L 33.15625 48.171875 C 37.144531 43.332031 37.542969 42.84375 37.382812 42.941406 C 37.347656 42.96875 37.238281 42.808594 37.144531 42.585938 C 36.957031 42.144531 36.894531 42.003906 32.351562 31.652344 C 30.546875 27.542969 29.050781 24.132812 29.023438 24.078125 C 28.980469 24.007812 28.960938 24.011719 28.941406 24.109375 Z M 28.941406 24.109375 "/>
</g>
</svg>
